<svg width="143" height="143" viewBox="0 0 143 143" fill="none" xmlns="http://www.w3.org/2000/svg">
<path d="M33.3803 64.6565L41.1841 58.916C41.7969 58.4666 42.5323 58.2215 43.3086 58.2215H123.593C123.593 54.5852 123.593 49.6006 123.593 46.904L117.526 40.8572H78.4253C77.8533 40.898 77.2609 40.8163 76.7093 40.5916C76.5663 40.5303 76.4438 40.4486 76.3008 40.3873C76.2395 40.3465 76.1986 40.326 76.1373 40.3056C75.8718 40.1217 75.6266 39.9175 75.4019 39.6723L54.1358 18.3857H18.3245L12.2572 24.453V117.526L15.1989 120.467L32.0729 66.4542C32.2976 65.7187 32.7471 65.0855 33.3599 64.636L33.3803 64.6565Z" fill="black"/>
<path d="M126.473 65.3715H44.4527L38.5488 69.7227L21.7157 123.593H111.704L117.628 119.262L132.132 73.073L126.473 65.3715Z" fill="black"/>
</svg>
