<svg xmlns="http://www.w3.org/2000/svg" xmlns:xlink="http://www.w3.org/1999/xlink" width="1240" zoomAndPan="magnify" viewBox="0 0 930 929.999989" height="1240" preserveAspectRatio="xMidYMid meet" version="1.0"><defs><clipPath id="28ab237842"><path d="M 464 78 L 772 78 L 772 677 L 464 677 Z M 464 78 " clip-rule="nonzero"/></clipPath><clipPath id="87a313306c"><path d="M 464.898438 78.957031 L 464.898438 281.710938 C 466.589844 281.710938 468.285156 281.753906 469.976562 281.835938 C 471.667969 281.917969 473.355469 282.042969 475.039062 282.210938 C 476.726562 282.375 478.40625 282.582031 480.082031 282.832031 C 481.757812 283.082031 483.425781 283.371094 485.085938 283.699219 C 486.746094 284.03125 488.398438 284.402344 490.042969 284.8125 C 491.683594 285.226562 493.316406 285.675781 494.9375 286.167969 C 496.558594 286.660156 498.164062 287.191406 499.757812 287.761719 C 501.355469 288.332031 502.933594 288.945312 504.496094 289.589844 C 506.0625 290.238281 507.609375 290.925781 509.140625 291.652344 C 510.671875 292.375 512.183594 293.136719 513.679688 293.9375 C 515.171875 294.734375 516.644531 295.570312 518.097656 296.441406 C 519.550781 297.3125 520.980469 298.21875 522.386719 299.160156 C 523.796875 300.101562 525.179688 301.074219 526.539062 302.085938 C 527.902344 303.09375 529.234375 304.136719 530.546875 305.210938 C 531.855469 306.285156 533.136719 307.394531 534.390625 308.53125 C 535.644531 309.667969 536.871094 310.835938 538.070312 312.035156 C 539.265625 313.234375 540.433594 314.460938 541.570312 315.714844 C 542.707031 316.96875 543.816406 318.253906 544.890625 319.5625 C 545.964844 320.871094 547.003906 322.207031 548.015625 323.570312 C 549.023438 324.929688 549.996094 326.3125 550.9375 327.722656 C 551.878906 329.132812 552.785156 330.5625 553.65625 332.015625 C 554.527344 333.46875 555.359375 334.945312 556.160156 336.4375 C 556.957031 337.933594 557.71875 339.445312 558.441406 340.976562 C 559.167969 342.507812 559.851562 344.058594 560.5 345.621094 C 561.148438 347.1875 561.757812 348.769531 562.328125 350.363281 C 562.898438 351.957031 563.429688 353.566406 563.921875 355.1875 C 564.414062 356.808594 564.867188 358.441406 565.277344 360.085938 C 565.6875 361.730469 566.058594 363.382812 566.390625 365.042969 C 566.71875 366.707031 567.007812 368.375 567.257812 370.050781 C 567.507812 371.726562 567.714844 373.40625 567.878906 375.09375 C 568.046875 376.78125 568.171875 378.46875 568.253906 380.160156 C 568.335938 381.855469 568.378906 383.546875 568.378906 385.242188 C 568.378906 386.9375 568.335938 388.628906 568.253906 390.320312 C 568.171875 392.015625 568.046875 393.703125 567.878906 395.390625 C 567.714844 397.074219 567.507812 398.757812 567.257812 400.433594 C 567.007812 402.109375 566.71875 403.777344 566.390625 405.441406 C 566.058594 407.101562 565.6875 408.753906 565.277344 410.398438 C 564.867188 412.042969 564.414062 413.675781 563.921875 415.296875 C 563.429688 416.917969 562.898438 418.523438 562.328125 420.121094 C 561.757812 421.714844 561.148438 423.296875 560.5 424.863281 C 559.851562 426.425781 559.167969 427.976562 558.441406 429.507812 C 557.71875 431.039062 556.957031 432.550781 556.160156 434.046875 C 555.359375 435.539062 554.527344 437.015625 553.65625 438.46875 C 552.785156 439.921875 551.878906 441.351562 550.9375 442.761719 C 549.996094 444.167969 549.023438 445.554688 548.015625 446.914062 C 547.003906 448.277344 545.964844 449.613281 544.890625 450.921875 C 543.816406 452.230469 542.707031 453.515625 541.570312 454.769531 C 540.433594 456.023438 539.265625 457.25 538.070312 458.449219 C 536.871094 459.648438 535.644531 460.816406 534.390625 461.953125 C 533.136719 463.089844 531.855469 464.199219 530.546875 465.273438 C 529.234375 466.347656 527.902344 467.390625 526.539062 468.398438 C 525.179688 469.410156 523.796875 470.382812 522.386719 471.324219 C 520.980469 472.265625 519.550781 473.171875 518.097656 474.042969 C 516.644531 474.914062 515.171875 475.75 513.679688 476.546875 C 512.183594 477.347656 510.671875 478.109375 509.140625 478.832031 C 507.609375 479.558594 506.0625 480.242188 504.496094 480.890625 C 502.933594 481.539062 501.355469 482.148438 499.757812 482.722656 C 498.164062 483.292969 496.558594 483.824219 494.9375 484.316406 C 493.316406 484.808594 491.683594 485.257812 490.042969 485.671875 C 488.398438 486.082031 486.746094 486.453125 485.085938 486.785156 C 483.425781 487.113281 481.757812 487.402344 480.082031 487.652344 C 478.40625 487.902344 476.726562 488.109375 475.039062 488.273438 C 473.355469 488.441406 471.667969 488.566406 469.976562 488.648438 C 468.285156 488.730469 466.589844 488.773438 464.898438 488.773438 C 466.449219 488.773438 467.996094 488.8125 469.542969 488.886719 C 471.09375 488.964844 472.636719 489.078125 474.179688 489.230469 C 475.722656 489.382812 477.261719 489.570312 478.792969 489.796875 C 480.328125 490.027344 481.855469 490.292969 483.375 490.59375 C 484.894531 490.894531 486.40625 491.234375 487.910156 491.613281 C 489.414062 491.988281 490.90625 492.402344 492.390625 492.851562 C 493.875 493.304688 495.34375 493.789062 496.804688 494.3125 C 498.261719 494.835938 499.710938 495.390625 501.140625 495.984375 C 502.574219 496.578125 503.988281 497.207031 505.390625 497.871094 C 506.792969 498.535156 508.175781 499.230469 509.542969 499.960938 C 510.910156 500.691406 512.257812 501.457031 513.585938 502.253906 C 514.917969 503.050781 516.226562 503.878906 517.515625 504.742188 C 518.804688 505.605469 520.070312 506.496094 521.316406 507.421875 C 522.5625 508.34375 523.78125 509.296875 524.980469 510.28125 C 526.179688 511.265625 527.351562 512.277344 528.5 513.320312 C 529.648438 514.359375 530.769531 515.429688 531.867188 516.527344 C 532.964844 517.621094 534.03125 518.746094 535.074219 519.894531 C 536.113281 521.042969 537.125 522.21875 538.109375 523.417969 C 539.09375 524.613281 540.046875 525.835938 540.96875 527.082031 C 541.890625 528.328125 542.785156 529.597656 543.644531 530.886719 C 544.507812 532.175781 545.335938 533.484375 546.132812 534.816406 C 546.929688 536.144531 547.691406 537.492188 548.421875 538.859375 C 549.15625 540.230469 549.851562 541.613281 550.515625 543.015625 C 551.175781 544.417969 551.804688 545.835938 552.398438 547.265625 C 552.992188 548.699219 553.546875 550.144531 554.070312 551.605469 C 554.59375 553.066406 555.078125 554.539062 555.527344 556.023438 C 555.980469 557.507812 556.390625 559 556.769531 560.503906 C 557.144531 562.007812 557.484375 563.523438 557.785156 565.042969 C 558.089844 566.5625 558.355469 568.089844 558.582031 569.625 C 558.808594 571.160156 559 572.699219 559.152344 574.242188 C 559.304688 575.785156 559.417969 577.332031 559.492188 578.878906 C 559.570312 580.429688 559.605469 581.976562 559.605469 583.527344 L 559.605469 676.5625 C 563.902344 675.171875 568.164062 673.6875 572.390625 672.109375 C 576.621094 670.53125 580.8125 668.859375 584.96875 667.097656 C 589.125 665.332031 593.238281 663.476562 597.3125 661.53125 C 601.382812 659.585938 605.414062 657.550781 609.394531 655.425781 C 613.378906 653.304688 617.3125 651.09375 621.199219 648.792969 C 625.082031 646.496094 628.917969 644.113281 632.695312 641.644531 C 636.476562 639.175781 640.199219 636.625 643.867188 633.992188 C 647.535156 631.359375 651.140625 628.648438 654.6875 625.855469 C 658.234375 623.0625 661.71875 620.195312 665.140625 617.246094 C 668.5625 614.300781 671.914062 611.28125 675.203125 608.183594 C 678.488281 605.089844 681.707031 601.921875 684.851562 598.6875 C 688 595.449219 691.074219 592.144531 694.074219 588.769531 C 697.074219 585.394531 700 581.957031 702.847656 578.453125 C 705.695312 574.953125 708.464844 571.386719 711.15625 567.761719 C 713.847656 564.136719 716.457031 560.453125 718.984375 556.710938 C 721.511719 552.972656 723.957031 549.175781 726.316406 545.328125 C 728.679688 541.476562 730.953125 537.578125 733.140625 533.628906 C 735.328125 529.679688 737.429688 525.683594 739.4375 521.640625 C 741.449219 517.597656 743.371094 513.511719 745.203125 509.382812 C 747.03125 505.257812 748.769531 501.089844 750.417969 496.886719 C 752.0625 492.679688 753.617188 488.441406 755.074219 484.167969 C 756.535156 479.894531 757.898438 475.589844 759.167969 471.257812 C 760.433594 466.921875 761.605469 462.5625 762.683594 458.175781 C 763.757812 453.792969 764.738281 449.382812 765.617188 444.957031 C 766.5 440.527344 767.28125 436.082031 767.964844 431.617188 C 768.648438 427.152344 769.234375 422.675781 769.722656 418.1875 C 770.207031 413.699219 770.59375 409.199219 770.882812 404.691406 C 771.171875 400.1875 771.359375 395.675781 771.445312 391.160156 C 771.535156 386.644531 771.523438 382.128906 771.410156 377.617188 C 771.300781 373.101562 771.089844 368.589844 770.777344 364.085938 C 770.464844 359.582031 770.054688 355.085938 769.546875 350.597656 C 769.035156 346.109375 768.425781 341.636719 767.71875 337.179688 C 767.011719 332.71875 766.207031 328.277344 765.300781 323.851562 C 764.398438 319.425781 763.398438 315.023438 762.296875 310.644531 C 761.199219 306.265625 760.003906 301.910156 758.710938 297.585938 C 757.421875 293.257812 756.035156 288.960938 754.554688 284.695312 C 753.074219 280.429688 751.5 276.199219 749.828125 272 C 748.160156 267.804688 746.402344 263.648438 744.550781 259.53125 C 742.699219 255.414062 740.753906 251.335938 738.722656 247.304688 C 736.691406 243.273438 734.570312 239.289062 732.363281 235.347656 C 730.152344 231.410156 727.859375 227.523438 725.476562 223.6875 C 723.097656 219.847656 720.632812 216.066406 718.085938 212.339844 C 715.539062 208.613281 712.910156 204.941406 710.199219 201.332031 C 707.488281 197.71875 704.703125 194.167969 701.835938 190.683594 C 698.96875 187.195312 696.023438 183.769531 693.007812 180.414062 C 689.988281 177.054688 686.898438 173.765625 683.734375 170.546875 C 680.570312 167.324219 677.335938 164.175781 674.035156 161.097656 C 670.730469 158.019531 667.363281 155.015625 663.925781 152.085938 C 660.488281 149.160156 656.992188 146.308594 653.429688 143.535156 C 649.867188 140.761719 646.246094 138.066406 642.566406 135.453125 C 638.882812 132.839844 635.148438 130.308594 631.355469 127.859375 C 627.5625 125.410156 623.71875 123.050781 619.820312 120.769531 C 615.921875 118.492188 611.976562 116.300781 607.980469 114.199219 C 603.988281 112.097656 599.949219 110.082031 595.867188 108.15625 C 591.78125 106.234375 587.660156 104.398438 583.496094 102.65625 C 579.332031 100.914062 575.128906 99.265625 570.890625 97.710938 C 566.65625 96.152344 562.386719 94.691406 558.082031 93.324219 C 553.78125 91.957031 549.453125 90.6875 545.09375 89.511719 C 540.734375 88.335938 536.355469 87.257812 531.949219 86.277344 C 527.542969 85.292969 523.117188 84.410156 518.671875 83.625 C 514.226562 82.839844 509.769531 82.152344 505.292969 81.566406 C 500.816406 80.976562 496.332031 80.488281 491.835938 80.097656 C 487.335938 79.707031 482.835938 79.417969 478.324219 79.226562 C 473.816406 79.035156 469.304688 78.945312 464.789062 78.957031 Z M 464.898438 78.957031 " clip-rule="nonzero"/></clipPath><linearGradient x1="42.66" gradientTransform="matrix(10.762441, 0, 0, 10.767669, 158.813586, 78.955769)" y1="55.499997" x2="42.66" gradientUnits="userSpaceOnUse" y2="-0.000862988" id="0c52557dfb"><stop stop-opacity="1" stop-color="rgb(0%, 32.199097%, 79.998779%)" offset="0"/><stop stop-opacity="1" stop-color="rgb(0%, 32.199097%, 79.998779%)" offset="0.125"/><stop stop-opacity="1" stop-color="rgb(0%, 32.199097%, 79.998779%)" offset="0.1875"/><stop stop-opacity="1" stop-color="rgb(0.0747681%, 32.298279%, 80.101013%)" offset="0.195312"/><stop stop-opacity="1" stop-color="rgb(0.280762%, 32.569885%, 80.377197%)" offset="0.203125"/><stop stop-opacity="1" stop-color="rgb(0.541687%, 32.913208%, 80.728149%)" offset="0.210938"/><stop stop-opacity="1" stop-color="rgb(0.802612%, 33.256531%, 81.077576%)" offset="0.21875"/><stop stop-opacity="1" stop-color="rgb(1.063538%, 33.598328%, 81.427002%)" offset="0.226563"/><stop stop-opacity="1" stop-color="rgb(1.324463%, 33.94165%, 81.777954%)" offset="0.234375"/><stop stop-opacity="1" stop-color="rgb(1.585388%, 34.284973%, 82.12738%)" offset="0.242188"/><stop stop-opacity="1" stop-color="rgb(1.844788%, 34.628296%, 82.478333%)" offset="0.25"/><stop stop-opacity="1" stop-color="rgb(2.105713%, 34.971619%, 82.827759%)" offset="0.257813"/><stop stop-opacity="1" stop-color="rgb(2.366638%, 35.314941%, 83.178711%)" offset="0.265625"/><stop stop-opacity="1" stop-color="rgb(2.627563%, 35.656738%, 83.528137%)" offset="0.273438"/><stop stop-opacity="1" stop-color="rgb(2.888489%, 36.000061%, 83.877563%)" offset="0.28125"/><stop stop-opacity="1" stop-color="rgb(3.149414%, 36.343384%, 84.228516%)" offset="0.289063"/><stop stop-opacity="1" stop-color="rgb(3.410339%, 36.686707%, 84.577942%)" offset="0.296875"/><stop stop-opacity="1" stop-color="rgb(3.671265%, 37.030029%, 84.928894%)" offset="0.304688"/><stop stop-opacity="1" stop-color="rgb(3.93219%, 37.373352%, 85.27832%)" offset="0.3125"/><stop stop-opacity="1" stop-color="rgb(4.193115%, 37.715149%, 85.629272%)" offset="0.320313"/><stop stop-opacity="1" stop-color="rgb(4.454041%, 38.058472%, 85.978699%)" offset="0.328125"/><stop stop-opacity="1" stop-color="rgb(4.714966%, 38.401794%, 86.328125%)" offset="0.335938"/><stop stop-opacity="1" stop-color="rgb(4.974365%, 38.745117%, 86.679077%)" offset="0.34375"/><stop stop-opacity="1" stop-color="rgb(5.235291%, 39.08844%, 87.028503%)" offset="0.351563"/><stop stop-opacity="1" stop-color="rgb(5.496216%, 39.431763%, 87.379456%)" offset="0.359375"/><stop stop-opacity="1" stop-color="rgb(5.757141%, 39.77356%, 87.728882%)" offset="0.367188"/><stop stop-opacity="1" stop-color="rgb(6.018066%, 40.116882%, 88.078308%)" offset="0.375"/><stop stop-opacity="1" stop-color="rgb(6.278992%, 40.460205%, 88.42926%)" offset="0.382813"/><stop stop-opacity="1" stop-color="rgb(6.539917%, 40.803528%, 88.778687%)" offset="0.390625"/><stop stop-opacity="1" stop-color="rgb(6.800842%, 41.146851%, 89.129639%)" offset="0.398438"/><stop stop-opacity="1" stop-color="rgb(7.061768%, 41.490173%, 89.479065%)" offset="0.40625"/><stop stop-opacity="1" stop-color="rgb(7.322693%, 41.83197%, 89.830017%)" offset="0.414062"/><stop stop-opacity="1" stop-color="rgb(7.583618%, 42.175293%, 90.179443%)" offset="0.421875"/><stop stop-opacity="1" stop-color="rgb(7.844543%, 42.518616%, 90.52887%)" offset="0.429688"/><stop stop-opacity="1" stop-color="rgb(8.105469%, 42.861938%, 90.879822%)" offset="0.4375"/><stop stop-opacity="1" stop-color="rgb(8.364868%, 43.205261%, 91.229248%)" offset="0.445312"/><stop stop-opacity="1" stop-color="rgb(8.625793%, 43.548584%, 91.5802%)" offset="0.453125"/><stop stop-opacity="1" stop-color="rgb(8.886719%, 43.890381%, 91.929626%)" offset="0.460938"/><stop stop-opacity="1" stop-color="rgb(9.147644%, 44.233704%, 92.280579%)" offset="0.46875"/><stop stop-opacity="1" stop-color="rgb(9.408569%, 44.577026%, 92.630005%)" offset="0.476563"/><stop stop-opacity="1" stop-color="rgb(9.669495%, 44.920349%, 92.979431%)" offset="0.484375"/><stop stop-opacity="1" stop-color="rgb(9.93042%, 45.263672%, 93.330383%)" offset="0.492188"/><stop stop-opacity="1" stop-color="rgb(10.191345%, 45.606995%, 93.67981%)" offset="0.5"/><stop stop-opacity="1" stop-color="rgb(10.452271%, 45.948792%, 94.030762%)" offset="0.507813"/><stop stop-opacity="1" stop-color="rgb(10.713196%, 46.292114%, 94.380188%)" offset="0.515625"/><stop stop-opacity="1" stop-color="rgb(10.974121%, 46.635437%, 94.729614%)" offset="0.523438"/><stop stop-opacity="1" stop-color="rgb(11.235046%, 46.97876%, 95.080566%)" offset="0.53125"/><stop stop-opacity="1" stop-color="rgb(11.494446%, 47.322083%, 95.429993%)" offset="0.539063"/><stop stop-opacity="1" stop-color="rgb(11.755371%, 47.665405%, 95.780945%)" offset="0.546875"/><stop stop-opacity="1" stop-color="rgb(12.016296%, 48.007202%, 96.130371%)" offset="0.554688"/><stop stop-opacity="1" stop-color="rgb(12.277222%, 48.350525%, 96.481323%)" offset="0.5625"/><stop stop-opacity="1" stop-color="rgb(12.538147%, 48.693848%, 96.83075%)" offset="0.570313"/><stop stop-opacity="1" stop-color="rgb(12.799072%, 49.03717%, 97.180176%)" offset="0.578125"/><stop stop-opacity="1" stop-color="rgb(13.059998%, 49.380493%, 97.531128%)" offset="0.585938"/><stop stop-opacity="1" stop-color="rgb(13.320923%, 49.723816%, 97.880554%)" offset="0.59375"/><stop stop-opacity="1" stop-color="rgb(13.581848%, 50.065613%, 98.231506%)" offset="0.601563"/><stop stop-opacity="1" stop-color="rgb(13.842773%, 50.408936%, 98.580933%)" offset="0.609375"/><stop stop-opacity="1" stop-color="rgb(14.103699%, 50.752258%, 98.931885%)" offset="0.617188"/><stop stop-opacity="1" stop-color="rgb(14.364624%, 51.095581%, 99.281311%)" offset="0.625"/><stop stop-opacity="1" stop-color="rgb(14.624023%, 51.438904%, 99.630737%)" offset="0.632813"/><stop stop-opacity="1" stop-color="rgb(14.826965%, 51.704407%, 99.902344%)" offset="0.640625"/><stop stop-opacity="1" stop-color="rgb(14.898682%, 51.799011%, 100%)" offset="0.65625"/><stop stop-opacity="1" stop-color="rgb(14.898682%, 51.799011%, 100%)" offset="0.6875"/><stop stop-opacity="1" stop-color="rgb(14.898682%, 51.799011%, 100%)" offset="0.75"/><stop stop-opacity="1" stop-color="rgb(14.898682%, 51.799011%, 100%)" offset="1"/></linearGradient></defs><path fill="#2684ff" d="M 770.980469 385.1875 C 770.980469 380.175781 770.859375 375.167969 770.613281 370.164062 C 770.367188 365.15625 770 360.160156 769.507812 355.171875 C 769.015625 350.183594 768.402344 345.210938 767.667969 340.253906 C 766.933594 335.296875 766.078125 330.359375 765.101562 325.445312 C 764.121094 320.53125 763.023438 315.640625 761.808594 310.78125 C 760.589844 305.917969 759.253906 301.089844 757.800781 296.292969 C 756.347656 291.496094 754.777344 286.742188 753.089844 282.023438 C 751.402344 277.304688 749.597656 272.628906 747.683594 268 C 745.765625 263.367188 743.734375 258.789062 741.59375 254.257812 C 739.453125 249.726562 737.199219 245.25 734.839844 240.832031 C 732.476562 236.410156 730.007812 232.050781 727.433594 227.753906 C 724.859375 223.453125 722.179688 219.222656 719.398438 215.054688 C 716.613281 210.886719 713.730469 206.792969 710.746094 202.765625 C 707.761719 198.742188 704.679688 194.789062 701.503906 190.917969 C 698.324219 187.042969 695.054688 183.25 691.691406 179.535156 C 688.328125 175.820312 684.875 172.191406 681.332031 168.648438 C 677.789062 165.105469 674.164062 161.652344 670.449219 158.285156 C 666.738281 154.917969 662.945312 151.648438 659.074219 148.46875 C 655.203125 145.289062 651.253906 142.207031 647.230469 139.21875 C 643.207031 136.234375 639.113281 133.351562 634.949219 130.566406 C 630.785156 127.78125 626.550781 125.101562 622.253906 122.523438 C 617.960938 119.949219 613.601562 117.476562 609.183594 115.117188 C 604.765625 112.753906 600.292969 110.5 595.765625 108.355469 C 591.238281 106.214844 586.660156 104.183594 582.03125 102.265625 C 577.402344 100.347656 572.730469 98.546875 568.015625 96.855469 C 563.296875 95.167969 558.542969 93.597656 553.75 92.140625 C 548.957031 90.6875 544.128906 89.351562 539.269531 88.132812 C 534.410156 86.914062 529.523438 85.816406 524.613281 84.839844 C 519.699219 83.863281 514.765625 83.003906 509.808594 82.269531 C 504.855469 81.535156 499.882812 80.921875 494.898438 80.429688 C 489.914062 79.9375 484.917969 79.570312 479.917969 79.324219 C 474.914062 79.078125 469.90625 78.957031 464.898438 78.957031 C 460.386719 78.949219 455.875 79.039062 451.367188 79.230469 C 446.863281 79.421875 442.359375 79.714844 437.867188 80.105469 C 433.371094 80.496094 428.886719 80.984375 424.414062 81.574219 C 419.941406 82.164062 415.484375 82.851562 411.042969 83.636719 C 406.597656 84.425781 402.175781 85.308594 397.773438 86.292969 C 393.371094 87.273438 388.988281 88.351562 384.632812 89.527344 C 380.277344 90.707031 375.949219 91.976562 371.652344 93.34375 C 367.351562 94.710938 363.085938 96.175781 358.851562 97.730469 C 354.617188 99.285156 350.417969 100.9375 346.253906 102.679688 C 342.09375 104.421875 337.972656 106.253906 333.890625 108.179688 C 329.808594 110.105469 325.773438 112.117188 321.78125 114.21875 C 317.789062 116.324219 313.847656 118.515625 309.953125 120.792969 C 306.058594 123.070312 302.214844 125.433594 298.425781 127.878906 C 294.632812 130.328125 290.898438 132.859375 287.21875 135.472656 C 283.542969 138.085938 279.921875 140.777344 276.363281 143.550781 C 272.804688 146.324219 269.308594 149.175781 265.875 152.101562 C 262.441406 155.03125 259.074219 158.035156 255.773438 161.109375 C 252.472656 164.1875 249.242188 167.335938 246.078125 170.554688 C 242.917969 173.777344 239.828125 177.066406 236.8125 180.421875 C 233.796875 183.777344 230.855469 187.199219 227.992188 190.6875 C 225.125 194.171875 222.339844 197.722656 219.632812 201.332031 C 216.921875 204.941406 214.296875 208.609375 211.75 212.335938 C 209.207031 216.0625 206.742188 219.84375 204.363281 223.679688 C 201.984375 227.515625 199.691406 231.402344 197.484375 235.339844 C 195.277344 239.273438 193.160156 243.257812 191.128906 247.289062 C 189.097656 251.320312 187.160156 255.394531 185.308594 259.511719 C 183.457031 263.625 181.699219 267.78125 180.03125 271.976562 C 178.363281 276.171875 176.792969 280.398438 175.3125 284.664062 C 173.832031 288.925781 172.445312 293.222656 171.15625 297.546875 C 169.867188 301.871094 168.671875 306.222656 167.574219 310.601562 C 166.476562 314.980469 165.476562 319.378906 164.574219 323.804688 C 163.671875 328.226562 162.867188 332.664062 162.160156 337.125 C 161.453125 341.582031 160.84375 346.054688 160.335938 350.539062 C 159.828125 355.023438 159.417969 359.515625 159.105469 364.019531 C 158.796875 368.523438 158.585938 373.03125 158.472656 377.542969 C 158.363281 382.054688 158.351562 386.566406 158.441406 391.082031 C 158.527344 395.59375 158.71875 400.101562 159.003906 404.605469 C 159.292969 409.109375 159.679688 413.605469 160.167969 418.09375 C 160.652344 422.582031 161.238281 427.054688 161.921875 431.515625 C 162.605469 435.980469 163.390625 440.421875 164.269531 444.851562 C 165.152344 449.277344 166.128906 453.683594 167.203125 458.066406 C 168.28125 462.449219 169.453125 466.804688 170.722656 471.136719 C 171.988281 475.46875 173.351562 479.769531 174.8125 484.042969 C 176.269531 488.3125 177.820312 492.550781 179.46875 496.753906 C 181.113281 500.957031 182.851562 505.121094 184.679688 509.246094 C 186.511719 513.371094 188.429688 517.457031 190.441406 521.496094 C 192.453125 525.535156 194.550781 529.53125 196.738281 533.480469 C 198.925781 537.425781 201.199219 541.324219 203.558594 545.171875 C 205.917969 549.019531 208.359375 552.8125 210.886719 556.550781 C 213.414062 560.289062 216.023438 563.972656 218.710938 567.597656 C 221.402344 571.21875 224.171875 574.78125 227.019531 578.28125 C 229.863281 581.785156 232.789062 585.222656 235.789062 588.59375 C 238.785156 591.964844 241.859375 595.269531 245.003906 598.503906 C 248.148438 601.738281 251.363281 604.90625 254.652344 608 C 257.9375 611.09375 261.289062 614.109375 264.707031 617.054688 C 268.125 620 271.605469 622.871094 275.152344 625.660156 C 278.699219 628.453125 282.304688 631.164062 285.96875 633.796875 C 289.632812 636.425781 293.355469 638.976562 297.132812 641.441406 C 300.914062 643.910156 304.742188 646.292969 308.628906 648.589844 C 312.511719 650.886719 316.441406 653.097656 320.425781 655.21875 C 324.40625 657.34375 328.429688 659.378906 332.503906 661.320312 C 336.574219 663.265625 340.6875 665.121094 344.839844 666.882812 C 348.992188 668.648438 353.183594 670.316406 357.410156 671.894531 C 361.636719 673.472656 365.894531 674.957031 370.1875 676.347656 L 370.1875 829.785156 C 370.1875 830.492188 370.222656 831.195312 370.292969 831.894531 C 370.359375 832.597656 370.464844 833.292969 370.601562 833.988281 C 370.738281 834.679688 370.910156 835.363281 371.113281 836.035156 C 371.320312 836.710938 371.554688 837.375 371.828125 838.027344 C 372.097656 838.679688 372.398438 839.316406 372.730469 839.9375 C 373.0625 840.558594 373.425781 841.164062 373.816406 841.75 C 374.207031 842.335938 374.625 842.902344 375.074219 843.445312 C 375.519531 843.992188 375.992188 844.515625 376.492188 845.011719 C 376.992188 845.511719 377.511719 845.984375 378.058594 846.433594 C 378.601562 846.878906 379.167969 847.300781 379.753906 847.691406 C 380.339844 848.082031 380.945312 848.445312 381.566406 848.777344 C 382.1875 849.109375 382.824219 849.410156 383.476562 849.679688 C 384.125 849.949219 384.789062 850.1875 385.464844 850.394531 C 386.140625 850.597656 386.820312 850.769531 387.511719 850.90625 C 388.203125 851.042969 388.902344 851.148438 389.601562 851.21875 C 390.304688 851.285156 391.007812 851.320312 391.710938 851.320312 L 537.003906 851.320312 C 537.710938 851.320312 538.414062 851.285156 539.117188 851.21875 C 539.816406 851.148438 540.511719 851.042969 541.203125 850.90625 C 541.894531 850.769531 542.578125 850.597656 543.253906 850.394531 C 543.929688 850.1875 544.589844 849.949219 545.242188 849.679688 C 545.894531 849.410156 546.53125 849.109375 547.152344 848.777344 C 547.773438 848.445312 548.378906 848.082031 548.964844 847.691406 C 549.550781 847.300781 550.117188 846.878906 550.660156 846.433594 C 551.207031 845.984375 551.726562 845.511719 552.226562 845.011719 C 552.726562 844.515625 553.199219 843.992188 553.644531 843.445312 C 554.09375 842.902344 554.511719 842.335938 554.902344 841.75 C 555.292969 841.164062 555.65625 840.558594 555.988281 839.9375 C 556.320312 839.316406 556.621094 838.679688 556.890625 838.027344 C 557.160156 837.375 557.398438 836.710938 557.605469 836.035156 C 557.808594 835.363281 557.980469 834.679688 558.117188 833.988281 C 558.253906 833.292969 558.359375 832.597656 558.425781 831.894531 C 558.496094 831.195312 558.53125 830.492188 558.53125 829.785156 L 558.53125 676.5625 C 562.355469 675.332031 566.15625 674.03125 569.933594 672.652344 C 573.707031 671.273438 577.453125 669.824219 581.171875 668.296875 C 584.890625 666.773438 588.574219 665.175781 592.230469 663.503906 C 595.886719 661.835938 599.507812 660.09375 603.09375 658.28125 C 606.679688 656.46875 610.226562 654.582031 613.742188 652.632812 C 617.253906 650.679688 620.726562 648.65625 624.160156 646.566406 C 627.589844 644.476562 630.980469 642.320312 634.328125 640.097656 C 637.675781 637.875 640.980469 635.585938 644.238281 633.234375 C 647.496094 630.878906 650.707031 628.464844 653.867188 625.984375 C 657.03125 623.503906 660.144531 620.964844 663.207031 618.359375 C 666.269531 615.757812 669.28125 613.097656 672.238281 610.375 C 675.195312 607.65625 678.101562 604.878906 680.949219 602.042969 C 683.796875 599.207031 686.589844 596.316406 689.324219 593.371094 C 692.058594 590.425781 694.734375 587.429688 697.351562 584.378906 C 699.96875 581.328125 702.527344 578.226562 705.019531 575.074219 C 707.515625 571.921875 709.949219 568.722656 712.316406 565.476562 C 714.6875 562.230469 716.988281 558.9375 719.230469 555.597656 C 721.46875 552.261719 723.640625 548.878906 725.75 545.457031 C 727.855469 542.035156 729.894531 538.570312 731.863281 535.066406 C 733.835938 531.5625 735.734375 528.019531 737.566406 524.441406 C 739.398438 520.863281 741.15625 517.25 742.84375 513.601562 C 744.535156 509.953125 746.148438 506.273438 747.695312 502.5625 C 749.238281 498.851562 750.707031 495.113281 752.105469 491.34375 C 753.5 487.574219 754.824219 483.777344 756.070312 479.957031 C 757.316406 476.132812 758.488281 472.289062 759.585938 468.421875 C 760.683594 464.554688 761.703125 460.664062 762.644531 456.757812 C 763.585938 452.851562 764.453125 448.925781 765.242188 444.984375 C 766.03125 441.039062 766.742188 437.085938 767.375 433.113281 C 768.007812 429.144531 768.5625 425.164062 769.039062 421.171875 C 769.515625 417.179688 769.910156 413.179688 770.230469 409.171875 C 770.550781 405.164062 770.789062 401.152344 770.949219 397.136719 C 771.113281 393.121094 771.195312 389.101562 771.195312 385.082031 Z M 464.898438 488.558594 C 463.203125 488.558594 461.511719 488.519531 459.820312 488.4375 C 458.128906 488.355469 456.441406 488.230469 454.753906 488.066406 C 453.070312 487.898438 451.390625 487.695312 449.714844 487.445312 C 448.039062 487.199219 446.371094 486.910156 444.710938 486.582031 C 443.050781 486.25 441.398438 485.878906 439.753906 485.46875 C 438.113281 485.058594 436.480469 484.609375 434.859375 484.117188 C 433.238281 483.625 431.632812 483.09375 430.039062 482.523438 C 428.441406 481.957031 426.863281 481.347656 425.296875 480.699219 C 423.734375 480.050781 422.1875 479.367188 420.65625 478.640625 C 419.125 477.917969 417.613281 477.15625 416.117188 476.359375 C 414.625 475.5625 413.152344 474.726562 411.699219 473.855469 C 410.246094 472.988281 408.816406 472.082031 407.40625 471.140625 C 406 470.199219 404.613281 469.226562 403.253906 468.214844 C 401.894531 467.207031 400.558594 466.167969 399.25 465.089844 C 397.941406 464.015625 396.65625 462.910156 395.402344 461.773438 C 394.148438 460.636719 392.921875 459.46875 391.722656 458.273438 C 390.527344 457.074219 389.359375 455.847656 388.21875 454.59375 C 387.082031 453.339844 385.976562 452.054688 384.902344 450.746094 C 383.828125 449.4375 382.785156 448.101562 381.777344 446.742188 C 380.769531 445.382812 379.792969 443.996094 378.851562 442.589844 C 377.910156 441.179688 377.003906 439.75 376.132812 438.296875 C 375.261719 436.84375 374.429688 435.371094 373.628906 433.875 C 372.832031 432.382812 372.070312 430.871094 371.347656 429.339844 C 370.621094 427.808594 369.933594 426.257812 369.289062 424.695312 C 368.640625 423.128906 368.03125 421.546875 367.457031 419.953125 C 366.886719 418.359375 366.355469 416.75 365.867188 415.128906 C 365.375 413.507812 364.921875 411.875 364.511719 410.234375 C 364.097656 408.589844 363.726562 406.9375 363.398438 405.277344 C 363.066406 403.613281 362.777344 401.945312 362.527344 400.269531 C 362.28125 398.59375 362.074219 396.914062 361.90625 395.226562 C 361.742188 393.542969 361.617188 391.851562 361.53125 390.160156 C 361.449219 388.46875 361.410156 386.773438 361.410156 385.082031 C 361.410156 383.386719 361.449219 381.695312 361.53125 380 C 361.617188 378.308594 361.742188 376.621094 361.90625 374.933594 C 362.074219 373.25 362.28125 371.566406 362.527344 369.890625 C 362.777344 368.214844 363.066406 366.546875 363.398438 364.886719 C 363.726562 363.222656 364.097656 361.570312 364.511719 359.929688 C 364.921875 358.285156 365.375 356.652344 365.867188 355.03125 C 366.355469 353.410156 366.886719 351.800781 367.457031 350.207031 C 368.03125 348.613281 368.640625 347.03125 369.289062 345.46875 C 369.933594 343.902344 370.621094 342.355469 371.347656 340.824219 C 372.070312 339.292969 372.832031 337.777344 373.628906 336.285156 C 374.429688 334.789062 375.261719 333.316406 376.132812 331.863281 C 377.003906 330.410156 377.910156 328.980469 378.851562 327.574219 C 379.792969 326.164062 380.769531 324.78125 381.777344 323.417969 C 382.785156 322.058594 383.828125 320.722656 384.902344 319.414062 C 385.976562 318.105469 387.082031 316.824219 388.21875 315.566406 C 389.359375 314.3125 390.527344 313.085938 391.722656 311.890625 C 392.921875 310.691406 394.148438 309.523438 395.402344 308.386719 C 396.65625 307.25 397.941406 306.144531 399.25 305.070312 C 400.558594 303.996094 401.894531 302.953125 403.253906 301.945312 C 404.613281 300.9375 406 299.960938 407.40625 299.019531 C 408.816406 298.082031 410.246094 297.175781 411.699219 296.304688 C 413.152344 295.433594 414.625 294.601562 416.117188 293.800781 C 417.613281 293.003906 419.125 292.242188 420.65625 291.519531 C 422.1875 290.796875 423.734375 290.109375 425.296875 289.460938 C 426.863281 288.816406 428.441406 288.207031 430.039062 287.636719 C 431.632812 287.066406 433.238281 286.535156 434.859375 286.042969 C 436.480469 285.554688 438.113281 285.101562 439.753906 284.691406 C 441.398438 284.28125 443.050781 283.910156 444.710938 283.582031 C 446.371094 283.25 448.039062 282.960938 449.714844 282.714844 C 451.390625 282.46875 453.070312 282.261719 454.753906 282.097656 C 456.441406 281.929688 458.128906 281.808594 459.820312 281.726562 C 461.511719 281.644531 463.203125 281.601562 464.898438 281.601562 C 466.589844 281.601562 468.285156 281.644531 469.976562 281.726562 C 471.667969 281.8125 473.355469 281.9375 475.039062 282.101562 C 476.726562 282.269531 478.40625 282.476562 480.082031 282.722656 C 481.757812 282.972656 483.425781 283.261719 485.085938 283.59375 C 486.746094 283.921875 488.398438 284.292969 490.042969 284.707031 C 491.683594 285.117188 493.316406 285.570312 494.9375 286.0625 C 496.558594 286.554688 498.164062 287.085938 499.757812 287.65625 C 501.355469 288.226562 502.933594 288.835938 504.496094 289.484375 C 506.0625 290.132812 507.609375 290.820312 509.140625 291.542969 C 510.671875 292.269531 512.183594 293.03125 513.679688 293.828125 C 515.171875 294.625 516.644531 295.460938 518.097656 296.332031 C 519.550781 297.203125 520.980469 298.109375 522.386719 299.050781 C 523.796875 299.992188 525.179688 300.96875 526.539062 301.976562 C 527.902344 302.988281 529.234375 304.027344 530.546875 305.105469 C 531.855469 306.179688 533.136719 307.285156 534.390625 308.421875 C 535.644531 309.5625 536.871094 310.730469 538.070312 311.925781 C 539.265625 313.125 540.433594 314.351562 541.570312 315.605469 C 542.710938 316.863281 543.816406 318.144531 544.890625 319.453125 C 545.964844 320.765625 547.003906 322.101562 548.015625 323.460938 C 549.023438 324.820312 549.996094 326.207031 550.9375 327.617188 C 551.878906 329.023438 552.785156 330.457031 553.65625 331.910156 C 554.527344 333.363281 555.359375 334.835938 556.160156 336.332031 C 556.957031 337.824219 557.71875 339.335938 558.441406 340.871094 C 559.167969 342.402344 559.851562 343.949219 560.5 345.515625 C 561.148438 347.082031 561.757812 348.660156 562.328125 350.253906 C 562.898438 351.851562 563.429688 353.460938 563.921875 355.082031 C 564.414062 356.703125 564.867188 358.335938 565.277344 359.976562 C 565.6875 361.621094 566.058594 363.273438 566.390625 364.9375 C 566.71875 366.597656 567.007812 368.265625 567.257812 369.941406 C 567.507812 371.621094 567.714844 373.300781 567.878906 374.988281 C 568.046875 376.671875 568.171875 378.363281 568.253906 380.054688 C 568.335938 381.746094 568.378906 383.441406 568.378906 385.132812 C 568.378906 386.828125 568.335938 388.523438 568.253906 390.214844 C 568.171875 391.90625 568.046875 393.597656 567.878906 395.28125 C 567.714844 396.96875 567.507812 398.648438 567.257812 400.324219 C 567.007812 402 566.71875 403.671875 566.390625 405.332031 C 566.058594 406.996094 565.6875 408.648438 565.277344 410.289062 C 564.867188 411.933594 564.414062 413.566406 563.921875 415.1875 C 563.429688 416.808594 562.898438 418.417969 562.328125 420.011719 C 561.757812 421.609375 561.148438 423.1875 560.5 424.753906 C 559.851562 426.320312 559.167969 427.867188 558.441406 429.398438 C 557.71875 430.929688 556.957031 432.445312 556.160156 433.9375 C 555.359375 435.433594 554.527344 436.90625 553.65625 438.359375 C 552.785156 439.8125 551.878906 441.246094 550.9375 442.652344 C 549.996094 444.0625 549.023438 445.445312 548.015625 446.808594 C 547.003906 448.167969 545.964844 449.503906 544.890625 450.8125 C 543.816406 452.125 542.710938 453.40625 541.570312 454.660156 C 540.433594 455.917969 539.265625 457.144531 538.070312 458.34375 C 536.871094 459.539062 535.644531 460.707031 534.390625 461.847656 C 533.136719 462.984375 531.855469 464.089844 530.546875 465.164062 C 529.234375 466.238281 527.902344 467.28125 526.539062 468.292969 C 525.179688 469.300781 523.796875 470.277344 522.386719 471.21875 C 520.980469 472.160156 519.550781 473.066406 518.097656 473.9375 C 516.644531 474.808594 515.171875 475.640625 513.679688 476.441406 C 512.183594 477.238281 510.671875 478 509.140625 478.726562 C 507.609375 479.449219 506.0625 480.136719 504.496094 480.785156 C 502.933594 481.433594 501.355469 482.042969 499.757812 482.613281 C 498.164062 483.183594 496.558594 483.714844 494.9375 484.207031 C 493.316406 484.699219 491.683594 485.152344 490.042969 485.5625 C 488.398438 485.976562 486.746094 486.347656 485.085938 486.675781 C 483.425781 487.007812 481.757812 487.296875 480.082031 487.546875 C 478.40625 487.792969 476.726562 488 475.039062 488.167969 C 473.355469 488.332031 471.667969 488.457031 469.976562 488.539062 C 468.285156 488.625 466.589844 488.664062 464.898438 488.664062 Z M 464.898438 488.558594 " fill-opacity="1" fill-rule="nonzero"/><g clip-path="url(#28ab237842)"><g clip-path="url(#87a313306c)"><path fill="url(#0c52557dfb)" d="M 464.789062 78.945312 L 464.789062 676.5625 L 771.535156 676.5625 L 771.535156 78.945312 Z M 464.789062 78.945312 " fill-rule="nonzero"/></g></g></svg>